<?xml version="1.0" encoding="UTF-8"?>
<!-- Generator: Adobe Illustrator 28.0.0, SVG Export Plug-In . SVG Version: 6.00 Build 0)  -->
<svg xmlns="http://www.w3.org/2000/svg" xmlns:xlink="http://www.w3.org/1999/xlink" version="1.1" id="Livello_1" x="0px" y="0px" xml:space="preserve">
<style type="text/css">
	.st0{fill:black;}
	.st1{fill:#003399;}
	.st2{fill:#FFCC00;}
</style>
<path class="st0" d="M95.2,11.6H93c0-0.3-0.1-0.6-0.3-0.8c-0.1-0.2-0.3-0.4-0.5-0.6C92,10,91.8,9.9,91.5,9.8  c-0.3-0.1-0.5-0.1-0.8-0.1c-0.5,0-1,0.1-1.4,0.4c-0.4,0.3-0.7,0.7-0.9,1.2c-0.2,0.5-0.3,1.1-0.3,1.9c0,0.8,0.1,1.4,0.3,1.9  c0.2,0.5,0.5,0.9,0.9,1.2c0.4,0.3,0.9,0.4,1.4,0.4c0.3,0,0.6,0,0.8-0.1c0.3-0.1,0.5-0.2,0.7-0.3c0.2-0.2,0.4-0.3,0.5-0.6  c0.1-0.2,0.2-0.5,0.3-0.8h2.3c-0.1,0.5-0.2,1-0.4,1.4c-0.2,0.4-0.5,0.8-0.9,1.2c-0.4,0.4-0.9,0.6-1.4,0.8c-0.5,0.2-1.1,0.3-1.8,0.3  c-0.9,0-1.8-0.2-2.5-0.6s-1.3-1-1.8-1.8c-0.4-0.8-0.6-1.8-0.6-2.9c0-1.2,0.2-2.1,0.6-2.9c0.4-0.8,1-1.4,1.8-1.8  C89,8.2,89.9,8,90.8,8c0.6,0,1.2,0.1,1.7,0.3s1,0.4,1.4,0.8c0.4,0.3,0.7,0.7,1,1.2C95,10.5,95.2,11,95.2,11.6z M100.4,18.7  c-0.8,0-1.5-0.2-2.1-0.5s-1-0.8-1.3-1.4s-0.5-1.3-0.5-2.1s0.2-1.5,0.5-2.1s0.8-1.1,1.3-1.4c0.6-0.3,1.3-0.5,2.1-0.5  c0.8,0,1.5,0.2,2.1,0.5s1,0.8,1.3,1.4c0.3,0.6,0.5,1.3,0.5,2.1s-0.2,1.5-0.5,2.1s-0.8,1.1-1.3,1.4C101.9,18.5,101.2,18.7,100.4,18.7  z M100.4,17c0.4,0,0.7-0.1,0.9-0.3c0.2-0.2,0.4-0.5,0.6-0.9c0.1-0.4,0.2-0.8,0.2-1.2c0-0.5-0.1-0.9-0.2-1.2  c-0.1-0.4-0.3-0.6-0.6-0.9c-0.2-0.2-0.5-0.3-0.9-0.3s-0.7,0.1-0.9,0.3c-0.2,0.2-0.4,0.5-0.6,0.9c-0.1,0.4-0.2,0.8-0.2,1.2  c0,0.5,0.1,0.9,0.2,1.2c0.1,0.4,0.3,0.6,0.6,0.9C99.7,16.9,100,17,100.4,17z M110.6,13.3V15h-4.8v-1.7H110.6z M116.7,10.6v1.6h-4.9  v-1.6H116.7z M113,18.5V10c0-0.6,0.1-1,0.3-1.4c0.2-0.4,0.5-0.7,0.9-0.9s0.8-0.3,1.3-0.3c0.3,0,0.6,0,0.9,0.1s0.5,0.1,0.6,0.1  l-0.4,1.6c-0.1,0-0.2-0.1-0.3-0.1c-0.1,0-0.2,0-0.4,0c-0.3,0-0.5,0.1-0.7,0.2c-0.1,0.1-0.2,0.4-0.2,0.6v8.4h-2V18.5z M123.2,15.1  v-4.5h2.2v7.9h-2.1v-1.4h-0.1c-0.2,0.5-0.5,0.8-0.9,1.1c-0.4,0.3-0.9,0.4-1.5,0.4c-0.5,0-1-0.1-1.4-0.4c-0.4-0.2-0.7-0.6-0.9-1  c-0.2-0.4-0.3-1-0.3-1.6v-5h2.2v4.6c0,0.5,0.1,0.8,0.4,1.1c0.2,0.3,0.6,0.4,1,0.4c0.3,0,0.5-0.1,0.7-0.2s0.4-0.3,0.6-0.5  C123.1,15.8,123.2,15.5,123.2,15.1z M129.3,13.9v4.6h-2.2v-7.9h2.1V12h0.1c0.2-0.5,0.5-0.8,0.9-1.1s0.9-0.4,1.5-0.4  c0.5,0,1,0.1,1.4,0.4c0.4,0.2,0.7,0.6,1,1c0.2,0.4,0.3,1,0.3,1.6v5h-2.2v-4.6c0-0.5-0.1-0.9-0.4-1.1c-0.3-0.3-0.6-0.4-1-0.4  c-0.3,0-0.6,0.1-0.8,0.2c-0.2,0.1-0.4,0.3-0.5,0.6C129.4,13.3,129.3,13.6,129.3,13.9z M139.1,18.6c-0.6,0-1.1-0.2-1.6-0.5  s-0.9-0.8-1.2-1.4s-0.4-1.4-0.4-2.2c0-0.9,0.1-1.7,0.4-2.3c0.3-0.6,0.7-1.1,1.2-1.4c0.5-0.3,1-0.5,1.6-0.5c0.4,0,0.8,0.1,1.1,0.2  c0.3,0.1,0.5,0.3,0.7,0.6c0.2,0.2,0.3,0.4,0.4,0.6h0.1v-4h2.2v10.6h-2.2V17h-0.1c-0.1,0.2-0.2,0.4-0.4,0.7c-0.2,0.2-0.4,0.4-0.7,0.5  C139.8,18.6,139.5,18.6,139.1,18.6z M139.7,16.9c0.4,0,0.7-0.1,0.9-0.3c0.2-0.2,0.4-0.5,0.6-0.8c0.1-0.4,0.2-0.8,0.2-1.2  s-0.1-0.9-0.2-1.2c-0.1-0.3-0.3-0.6-0.6-0.8c-0.2-0.2-0.5-0.3-0.9-0.3s-0.7,0.1-0.9,0.3s-0.4,0.5-0.6,0.8c-0.1,0.3-0.2,0.7-0.2,1.2  s0.1,0.9,0.2,1.2c0.1,0.4,0.3,0.6,0.6,0.8C139.1,16.8,139.4,16.9,139.7,16.9z M149,18.7c-0.8,0-1.5-0.2-2.1-0.5s-1-0.8-1.3-1.4  s-0.5-1.3-0.5-2.2c0-0.8,0.2-1.5,0.5-2.1c0.3-0.6,0.8-1.1,1.3-1.4c0.6-0.3,1.3-0.5,2-0.5c0.5,0,1,0.1,1.5,0.3s0.8,0.4,1.2,0.7  c0.3,0.3,0.6,0.8,0.8,1.3s0.3,1.1,0.3,1.8v0.6H146v-1.4h4.6c0-0.3-0.1-0.6-0.2-0.8c-0.1-0.2-0.3-0.4-0.6-0.6  c-0.2-0.1-0.5-0.2-0.8-0.2s-0.6,0.1-0.9,0.2c-0.3,0.2-0.5,0.4-0.6,0.6c-0.1,0.3-0.2,0.5-0.2,0.9v1.3c0,0.4,0.1,0.7,0.2,1  c0.1,0.3,0.4,0.5,0.6,0.7c0.3,0.2,0.6,0.2,1,0.2c0.2,0,0.5,0,0.7-0.1s0.4-0.2,0.5-0.3c0.1-0.1,0.3-0.3,0.3-0.5l2,0.1  c-0.1,0.5-0.3,0.9-0.6,1.3s-0.7,0.6-1.2,0.8C150.2,18.6,149.6,18.7,149,18.7z M156.9,18.6c-0.6,0-1.1-0.2-1.6-0.5s-0.9-0.8-1.2-1.4  s-0.4-1.4-0.4-2.2c0-0.9,0.1-1.7,0.4-2.3c0.3-0.6,0.7-1.1,1.2-1.4c0.5-0.3,1-0.5,1.6-0.5c0.4,0,0.8,0.1,1.1,0.2  c0.3,0.1,0.5,0.3,0.7,0.6c0.2,0.2,0.3,0.4,0.4,0.6h0.1v-4h2.2v10.6h-2.2V17h-0.1c-0.1,0.2-0.2,0.4-0.4,0.7c-0.2,0.2-0.4,0.4-0.7,0.5  C157.7,18.6,157.4,18.6,156.9,18.6z M157.6,16.9c0.4,0,0.7-0.1,0.9-0.3c0.2-0.2,0.4-0.5,0.6-0.8c0.1-0.4,0.2-0.8,0.2-1.2  s-0.1-0.9-0.2-1.2c-0.1-0.3-0.3-0.6-0.6-0.8c-0.2-0.2-0.5-0.3-0.9-0.3s-0.7,0.1-0.9,0.3s-0.4,0.5-0.6,0.8c-0.1,0.3-0.2,0.7-0.2,1.2  s0.1,0.9,0.2,1.2c0.1,0.4,0.3,0.6,0.6,0.8C157,16.8,157.3,16.9,157.6,16.9z M166.7,18.5V7.9h2.2v4h0.1c0.1-0.2,0.2-0.4,0.4-0.6  c0.2-0.2,0.4-0.4,0.7-0.6c0.3-0.2,0.7-0.2,1.1-0.2c0.6,0,1.1,0.2,1.6,0.5s0.9,0.8,1.2,1.4c0.3,0.6,0.4,1.4,0.4,2.3  c0,0.9-0.1,1.6-0.4,2.2c-0.3,0.6-0.7,1.1-1.2,1.4s-1,0.5-1.6,0.5c-0.4,0-0.8-0.1-1.1-0.2s-0.5-0.3-0.7-0.5s-0.3-0.4-0.4-0.7h-0.1  v1.3h-2.2V18.5z M168.8,14.5c0,0.5,0.1,0.9,0.2,1.2c0.1,0.4,0.3,0.6,0.6,0.8c0.2,0.2,0.5,0.3,0.9,0.3s0.7-0.1,0.9-0.3  c0.2-0.2,0.4-0.5,0.6-0.8c0.1-0.4,0.2-0.8,0.2-1.2c0-0.5-0.1-0.9-0.2-1.2c-0.1-0.3-0.3-0.6-0.6-0.8c-0.2-0.2-0.6-0.3-0.9-0.3  c-0.4,0-0.7,0.1-0.9,0.3s-0.4,0.5-0.6,0.8C168.9,13.7,168.8,14.1,168.8,14.5z M176.9,21.5c-0.3,0-0.5,0-0.8-0.1  c-0.2,0-0.4-0.1-0.6-0.2l0.5-1.6c0.3,0.1,0.5,0.1,0.7,0.1s0.4,0,0.5-0.1c0.2-0.1,0.3-0.3,0.4-0.5l0.1-0.3l-2.8-8.1h2.3l1.6,5.8h0.1  l1.7-5.8h2.3l-3.1,8.8c-0.1,0.4-0.3,0.8-0.6,1.1c-0.2,0.3-0.6,0.6-1,0.7C177.9,21.4,177.5,21.5,176.9,21.5z M90.1,28.6v1.6h-4.8  v-1.6H90.1z M86.4,26.7h2.2v7.4c0,0.2,0,0.4,0.1,0.5s0.1,0.2,0.3,0.2c0.1,0,0.2,0.1,0.4,0.1c0.1,0,0.2,0,0.3,0c0.1,0,0.2,0,0.2,0  l0.3,1.6c-0.1,0-0.3,0.1-0.5,0.1s-0.4,0.1-0.7,0.1c-0.5,0-1,0-1.4-0.2s-0.7-0.4-0.9-0.8c-0.2-0.3-0.3-0.8-0.3-1.3V26.7z M93.9,31.9  v4.6h-2.2V25.9h2.1v4h0.1c0.2-0.5,0.5-0.8,0.9-1.1c0.4-0.3,0.9-0.4,1.5-0.4c0.5,0,1,0.1,1.4,0.4c0.4,0.2,0.7,0.6,1,1  c0.2,0.4,0.3,1,0.3,1.6v5h-2.2v-4.6c0-0.5-0.1-0.9-0.4-1.1c-0.2-0.3-0.6-0.4-1-0.4c-0.3,0-0.6,0.1-0.8,0.2c-0.2,0.1-0.4,0.3-0.5,0.6  C93.9,31.3,93.9,31.6,93.9,31.9z M104.3,36.7c-0.8,0-1.5-0.2-2.1-0.5s-1-0.8-1.4-1.4c-0.3-0.6-0.5-1.3-0.5-2.2  c0-0.8,0.2-1.5,0.5-2.1s0.8-1.1,1.3-1.4c0.6-0.3,1.3-0.5,2-0.5c0.5,0,1,0.1,1.5,0.3c0.5,0.2,0.8,0.4,1.2,0.7  c0.3,0.3,0.6,0.8,0.8,1.3c0.2,0.5,0.3,1.1,0.3,1.8v0.6h-6.7v-1.4h4.6c0-0.3-0.1-0.6-0.2-0.8c-0.1-0.2-0.3-0.4-0.6-0.6  c-0.2-0.1-0.5-0.2-0.8-0.2s-0.6,0.1-0.9,0.2c-0.3,0.2-0.5,0.4-0.6,0.6c-0.1,0.3-0.2,0.5-0.2,0.9v1.3c0,0.4,0.1,0.7,0.2,1  s0.4,0.5,0.6,0.7c0.3,0.2,0.6,0.2,1,0.2c0.2,0,0.5,0,0.7-0.1s0.4-0.2,0.5-0.3s0.3-0.3,0.3-0.5l2,0.1c-0.1,0.5-0.3,0.9-0.6,1.3  c-0.3,0.4-0.7,0.6-1.2,0.8C105.6,36.6,105,36.7,104.3,36.7z M112.8,36.5V25.9h7.1v1.8H115v2.5h4.5V32H115v2.5h4.9v1.8h-7.1V36.5z   M126.7,33.1v-4.5h2.2v7.9h-2.1v-1.4h-0.1c-0.2,0.5-0.5,0.8-0.9,1.1s-0.9,0.4-1.5,0.4c-0.5,0-1-0.1-1.4-0.4c-0.4-0.2-0.7-0.6-0.9-1  c-0.2-0.4-0.3-1-0.3-1.6v-5h2.2v4.6c0,0.5,0.1,0.8,0.4,1.1c0.2,0.3,0.6,0.4,1,0.4c0.3,0,0.5-0.1,0.7-0.2c0.2-0.1,0.4-0.3,0.6-0.5  C126.7,33.8,126.7,33.5,126.7,33.1z M130.7,36.5v-7.9h2.1V30h0.1c0.1-0.5,0.4-0.9,0.7-1.1c0.3-0.3,0.7-0.4,1.2-0.4  c0.1,0,0.2,0,0.4,0c0.1,0,0.2,0,0.3,0.1v1.9c-0.1,0-0.2-0.1-0.4-0.1s-0.3,0-0.5,0c-0.3,0-0.6,0.1-0.9,0.2c-0.2,0.1-0.4,0.3-0.6,0.6  c-0.1,0.2-0.2,0.5-0.2,0.9v4.5h-2.2V36.5z M139.8,36.7c-0.8,0-1.5-0.2-2.1-0.5s-1-0.8-1.3-1.4c-0.3-0.6-0.5-1.3-0.5-2.1  s0.2-1.5,0.5-2.1s0.8-1.1,1.3-1.4c0.6-0.3,1.3-0.5,2.1-0.5s1.5,0.2,2.1,0.5s1,0.8,1.3,1.4s0.5,1.3,0.5,2.1c0,0.8-0.2,1.5-0.5,2.1  s-0.8,1.1-1.3,1.4C141.3,36.5,140.6,36.7,139.8,36.7z M139.8,35c0.4,0,0.7-0.1,0.9-0.3s0.4-0.5,0.6-0.9c0.1-0.4,0.2-0.8,0.2-1.2  s-0.1-0.9-0.2-1.2c-0.1-0.4-0.3-0.6-0.6-0.9c-0.2-0.2-0.5-0.3-0.9-0.3s-0.7,0.1-0.9,0.3c-0.2,0.2-0.4,0.5-0.6,0.9  c-0.1,0.4-0.2,0.8-0.2,1.2s0.1,0.9,0.2,1.2c0.1,0.4,0.3,0.6,0.6,0.9C139.2,34.9,139.5,35,139.8,35z M145.1,39.5V28.6h2.2v1.3h0.1  c0.1-0.2,0.2-0.4,0.4-0.6s0.4-0.4,0.7-0.6s0.7-0.2,1.1-0.2c0.6,0,1.1,0.2,1.6,0.5s0.9,0.8,1.2,1.4s0.4,1.4,0.4,2.3  c0,0.9-0.1,1.6-0.4,2.2c-0.3,0.6-0.7,1.1-1.2,1.4c-0.5,0.3-1,0.5-1.6,0.5c-0.4,0-0.8-0.1-1.1-0.2c-0.3-0.1-0.5-0.3-0.7-0.5  s-0.3-0.4-0.4-0.7h-0.1v4.2L145.1,39.5L145.1,39.5z M147.3,32.5c0,0.5,0.1,0.9,0.2,1.2c0.1,0.4,0.3,0.6,0.6,0.8  c0.2,0.2,0.5,0.3,0.9,0.3s0.7-0.1,0.9-0.3s0.4-0.5,0.6-0.8c0.1-0.4,0.2-0.8,0.2-1.2c0-0.5-0.1-0.9-0.2-1.2c-0.1-0.3-0.3-0.6-0.6-0.8  c-0.2-0.2-0.6-0.3-0.9-0.3c-0.4,0-0.7,0.1-0.9,0.3c-0.2,0.2-0.4,0.5-0.6,0.8C147.4,31.7,147.3,32.1,147.3,32.5z M157.9,36.7  c-0.8,0-1.5-0.2-2.1-0.5s-1-0.8-1.4-1.4c-0.3-0.6-0.5-1.3-0.5-2.2c0-0.8,0.2-1.5,0.5-2.1s0.8-1.1,1.3-1.4c0.6-0.3,1.3-0.5,2-0.5  c0.5,0,1,0.1,1.5,0.3c0.5,0.2,0.8,0.4,1.2,0.7c0.3,0.3,0.6,0.8,0.8,1.3s0.3,1.1,0.3,1.8v0.6h-6.7v-1.4h4.6c0-0.3-0.1-0.6-0.2-0.8  c-0.1-0.2-0.3-0.4-0.6-0.6c-0.2-0.1-0.5-0.2-0.8-0.2s-0.6,0.1-0.9,0.2c-0.3,0.2-0.5,0.4-0.6,0.6c-0.1,0.3-0.2,0.5-0.2,0.9v1.3  c0,0.4,0.1,0.7,0.2,1c0.1,0.3,0.4,0.5,0.6,0.7c0.3,0.2,0.6,0.2,1,0.2c0.2,0,0.5,0,0.7-0.1s0.4-0.2,0.5-0.3s0.3-0.3,0.3-0.5l2,0.1  c-0.1,0.5-0.3,0.9-0.6,1.3c-0.3,0.4-0.7,0.6-1.2,0.8C159.2,36.6,158.6,36.7,157.9,36.7z M165.3,36.6c-0.5,0-1-0.1-1.3-0.3  c-0.4-0.2-0.7-0.4-0.9-0.8c-0.2-0.4-0.3-0.8-0.3-1.3c0-0.4,0.1-0.8,0.2-1.1c0.2-0.3,0.4-0.5,0.7-0.7s0.6-0.3,0.9-0.4  c0.4-0.1,0.7-0.2,1.1-0.2c0.5,0,0.8-0.1,1.1-0.1s0.5-0.1,0.6-0.2s0.2-0.2,0.2-0.4l0,0c0-0.3-0.1-0.6-0.3-0.8  c-0.2-0.2-0.5-0.3-0.9-0.3s-0.7,0.1-0.9,0.3c-0.2,0.2-0.4,0.4-0.5,0.6l-2-0.2c0.1-0.5,0.3-0.9,0.6-1.2c0.3-0.4,0.7-0.6,1.2-0.8  c0.5-0.2,1-0.3,1.7-0.3c0.4,0,0.9,0.1,1.3,0.2c0.4,0.1,0.8,0.3,1.1,0.5s0.6,0.5,0.7,0.8c0.2,0.3,0.3,0.7,0.3,1.2v5.3h-2.1v-1.1h-0.1  c-0.1,0.2-0.3,0.5-0.5,0.7s-0.5,0.3-0.8,0.4C166,36.6,165.7,36.6,165.3,36.6z M165.9,35.1c0.3,0,0.6-0.1,0.9-0.2  c0.2-0.1,0.4-0.3,0.6-0.5c0.1-0.2,0.2-0.5,0.2-0.7v-0.8c-0.1,0-0.2,0.1-0.3,0.1s-0.2,0.1-0.4,0.1c-0.1,0-0.3,0.1-0.4,0.1  c-0.1,0-0.3,0-0.4,0.1c-0.3,0-0.5,0.1-0.7,0.2c-0.2,0.1-0.3,0.2-0.4,0.3c-0.1,0.1-0.2,0.3-0.2,0.5c0,0.3,0.1,0.5,0.3,0.7  C165.3,35.1,165.6,35.1,165.9,35.1z M173.6,31.9v4.6h-2.2v-7.9h2.1V30h0.1c0.2-0.5,0.5-0.8,0.9-1.1c0.4-0.3,0.9-0.4,1.5-0.4  s1,0.1,1.4,0.4c0.4,0.2,0.7,0.6,1,1c0.2,0.4,0.3,1,0.3,1.6v5h-2.2v-4.6c0-0.5-0.1-0.9-0.4-1.1c-0.3-0.3-0.6-0.4-1-0.4  c-0.3,0-0.6,0.1-0.8,0.2s-0.4,0.3-0.5,0.6C173.7,31.3,173.6,31.6,173.6,31.9z M190.4,25.9h2.2v6.9c0,0.8-0.2,1.4-0.6,2  c-0.4,0.6-0.9,1-1.5,1.3c-0.7,0.3-1.4,0.5-2.3,0.5c-0.9,0-1.6-0.2-2.3-0.5s-1.2-0.8-1.5-1.3c-0.4-0.6-0.5-1.3-0.5-2v-6.9h2.2v6.7  c0,0.4,0.1,0.8,0.3,1.1s0.4,0.6,0.8,0.7s0.7,0.3,1.1,0.3c0.4,0,0.8-0.1,1.1-0.3s0.6-0.4,0.7-0.7c0.2-0.3,0.3-0.7,0.3-1.1V25.9z   M196.6,31.9v4.6h-2.2v-7.9h2.1V30h0.1c0.2-0.5,0.5-0.8,0.9-1.1c0.4-0.3,0.9-0.4,1.5-0.4c0.5,0,1,0.1,1.4,0.4c0.4,0.2,0.7,0.6,1,1  c0.2,0.4,0.3,1,0.3,1.6v5h-2.2v-4.6c0-0.5-0.1-0.9-0.4-1.1c-0.2-0.3-0.6-0.4-1-0.4c-0.3,0-0.6,0.1-0.8,0.2s-0.4,0.3-0.5,0.6  C196.7,31.3,196.6,31.6,196.6,31.9z M203.4,36.5v-7.9h2.2v7.9H203.4z M204.5,27.6c-0.3,0-0.6-0.1-0.8-0.3c-0.2-0.2-0.3-0.5-0.3-0.8  s0.1-0.6,0.3-0.8c0.2-0.2,0.5-0.3,0.8-0.3s0.6,0.1,0.8,0.3c0.2,0.2,0.4,0.5,0.4,0.8s-0.1,0.6-0.4,0.8  C205.1,27.5,204.8,27.6,204.5,27.6z M210.9,36.7c-0.8,0-1.5-0.2-2.1-0.5s-1-0.8-1.3-1.4c-0.3-0.6-0.5-1.3-0.5-2.1s0.2-1.5,0.5-2.1  s0.8-1.1,1.3-1.4c0.6-0.3,1.3-0.5,2.1-0.5s1.5,0.2,2.1,0.5s1,0.8,1.3,1.4s0.5,1.3,0.5,2.1c0,0.8-0.2,1.5-0.5,2.1s-0.8,1.1-1.3,1.4  C212.4,36.5,211.7,36.7,210.9,36.7z M211,35c0.4,0,0.7-0.1,0.9-0.3s0.4-0.5,0.6-0.9c0.1-0.4,0.2-0.8,0.2-1.2s-0.1-0.9-0.2-1.2  c-0.1-0.4-0.3-0.6-0.6-0.9c-0.2-0.2-0.5-0.3-0.9-0.3s-0.7,0.1-0.9,0.3c-0.2,0.2-0.4,0.5-0.6,0.9c-0.1,0.4-0.2,0.8-0.2,1.2  s0.1,0.9,0.2,1.2c0.1,0.4,0.3,0.6,0.6,0.9C210.3,34.9,210.6,35,211,35z M218.5,31.9v4.6h-2.2v-7.9h2.1V30h0.1  c0.2-0.5,0.5-0.8,0.9-1.1c0.4-0.3,0.9-0.4,1.5-0.4s1,0.1,1.4,0.4c0.4,0.2,0.7,0.6,1,1c0.2,0.4,0.3,1,0.3,1.6v5h-2.2v-4.6  c0-0.5-0.1-0.9-0.4-1.1c-0.3-0.3-0.6-0.4-1-0.4c-0.3,0-0.6,0.1-0.8,0.2s-0.4,0.3-0.5,0.6C218.5,31.3,218.5,31.6,218.5,31.9z"></path>
<g>
	<g id="Livello_2_00000049218789607214560460000018073836464566297231_">
		<g id="Calque_1_00000118367653795530455510000012321424891594623373_">
			<rect class="st0" width="66.4" height="45.1"></rect>
			<rect x="1.3" y="1.2" class="st1" width="63.8" height="42.5"></rect>
			<polygon class="st2" points="31.9,10.5 33.2,9.5 34.5,10.5 34,8.9 35.4,7.9 33.7,7.9 33.2,6.3 32.7,7.9 31,7.9 32.3,8.9    "></polygon>
			<polygon class="st2" points="24.9,12.4 26.2,11.3 27.6,12.4 27,10.8 28.5,9.7 26.8,9.7 26.2,8.1 25.7,9.7 24,9.7 25.3,10.8         "></polygon>
			<polygon class="st2" points="21.1,13.2 20.6,14.8 18.9,14.8 20.3,15.9 19.8,17.5 21.1,16.5 22.5,17.5 21.9,15.9 23.4,14.8      21.7,14.8    "></polygon>
			<polygon class="st2" points="19.3,23.4 20.6,24.4 20,22.8 21.5,21.8 19.8,21.8 19.3,20.2 18.7,21.8 17,21.8 18.4,22.8 17.9,24.4         "></polygon>
			<polygon class="st2" points="21.7,28.8 21.1,27.2 20.6,28.8 18.9,28.8 20.3,29.8 19.8,31.4 21.1,30.4 22.5,31.4 21.9,29.8      23.4,28.8    "></polygon>
			<polygon class="st2" points="26.8,33.9 26.2,32.3 25.7,33.9 24,33.9 25.4,34.9 24.9,36.5 26.2,35.6 27.6,36.5 27,34.9 28.5,33.9         "></polygon>
			<polygon class="st2" points="33.7,35.7 33.2,34.1 32.7,35.7 31,35.7 32.3,36.8 31.9,38.4 33.2,37.3 34.5,38.4 34,36.8 35.4,35.7         "></polygon>
			<polygon class="st2" points="40.7,33.9 40.2,32.3 39.6,33.9 37.9,33.9 39.3,34.9 38.8,36.5 40.2,35.6 41.5,36.5 40.9,34.9      42.4,33.9    "></polygon>
			<polygon class="st2" points="45.8,28.8 45.3,27.2 44.7,28.8 43,28.8 44.4,29.8 43.9,31.4 45.3,30.4 46.6,31.4 46,29.8 47.5,28.8         "></polygon>
			<polygon class="st2" points="49.3,21.8 47.7,21.8 47.1,20.2 46.6,21.8 44.9,21.8 46.2,22.8 45.8,24.4 47.1,23.4 48.4,24.4      47.9,22.8    "></polygon>
			<polygon class="st2" points="43.9,17.4 45.3,16.5 46.6,17.4 46,15.9 47.5,14.8 45.8,14.8 45.3,13.2 44.7,14.8 43,14.8 44.4,15.9         "></polygon>
			<polygon class="st2" points="40.2,8.1 39.6,9.7 38,9.7 39.3,10.8 38.9,12.4 40.2,11.3 41.5,12.4 41,10.8 42.4,9.7 40.7,9.7         "></polygon>
		</g>
	</g>
</g>
</svg>