<?xml version="1.0" encoding="UTF-8"?>
<svg id="Livello_1" data-name="Livello 1" xmlns="http://www.w3.org/2000/svg" viewBox="0 0 200 200">
  <path d="m54.78,78.73h-5.6s5.92-33.58,5.92-33.58h30.22c1.85,0,3.09,1.5,2.77,3.36l-.39,2.24c-2.72,15.45-17.46,27.98-32.91,27.98Z" style="fill: #45c5c5; stroke-width: 0px;"/>
  <path d="m92.84,78.73h-2.24c-1.85,0-3.09-1.5-2.77-3.36l2.86-16.23c1.36-7.73,8.73-13.99,16.46-13.99h13.99c3.09,0,5.15,2.51,4.61,5.6h0c-2.72,15.45-17.46,27.98-32.91,27.98Z" style="fill: #9aeca4; stroke-width: 0px;"/>
  <path d="m128.63,80.97h-2.5c-1.91,0-3.19-1.55-2.85-3.47l.44-2.5c2.91-16.48,18.63-29.85,35.11-29.85h2.5c1.91,0,3.19,1.55,2.85,3.47l-.44,2.5c-2.91,16.48-18.63,29.85-35.11,29.85Z" style="fill: #c2e812; stroke-width: 0px;"/>
  <path d="m62.06,116.79h-19.59l5.92-33.58h30.22c1.85,0,3.09,1.5,2.77,3.36l-2.86,16.23c-1.36,7.73-8.73,13.99-16.46,13.99Z" style="fill: #134f8a; stroke-width: 0px;"/>
  <path d="m100.12,116.79h-19.59l3.45-19.59c1.36-7.73,8.73-13.99,16.46-13.99h16.23c1.85,0,3.09,1.5,2.77,3.36l-2.86,16.23c-1.36,7.73-8.73,13.99-16.46,13.99Z" style="fill: #45c5c5; stroke-width: 0px;"/>
  <path d="m138.21,116.79h-16.27c-1.85,0-3.08-1.5-2.76-3.35l.41-2.32c2.72-15.41,17.42-27.91,32.83-27.91h.09c3.08,0,5.14,2.5,4.6,5.58l-2.48,14.04c-1.36,7.71-8.71,13.95-16.42,13.95Z" style="fill: #9aeca4; stroke-width: 0px;"/>
  <polygon points="69.34 154.84 35.77 154.84 41.69 121.27 75.26 121.27 69.34 154.84" style="fill: #05294c; stroke-width: 0px;"/>
  <path d="m107.4,154.84h-33.58l3.45-19.59c1.36-7.73,8.73-13.99,16.46-13.99h16.23c1.85,0,3.09,1.5,2.77,3.36l-5.33,30.22Z" style="fill: #134f8a; stroke-width: 0px;"/>
  <path d="m145.45,154.84h-33.58l.99-5.6c2.72-15.45,17.46-27.98,32.91-27.98h2.24c1.85,0,3.09,1.5,2.77,3.36l-5.33,30.22Z" style="fill: #45c5c5; stroke-width: 0px;"/>
</svg>